<?xml version="1.0" standalone="no"?>
<!DOCTYPE svg PUBLIC "-//W3C//DTD SVG 20010904//EN"
 "http://www.w3.org/TR/2001/REC-SVG-20010904/DTD/svg10.dtd">
<svg version="1.0" xmlns="http://www.w3.org/2000/svg"
 width="689.000000pt" height="199.000000pt" viewBox="0 0 689.000000 199.000000"
 preserveAspectRatio="xMidYMid meet">

<g transform="translate(0.000000,199.000000) scale(0.100000,-0.100000)"
fill="#000000" stroke="none">
<path d="M351 1837 c-8 -10 -12 -223 -13 -737 l-3 -723 -86 2 c-107 3 -124 -9
-115 -77 8 -59 33 -98 76 -119 33 -17 106 -18 1180 -18 1074 0 1147 1 1180 18
49 24 70 63 70 130 0 66 -2 67 -116 67 l-84 0 0 723 c0 549 -3 726 -12 735
-19 19 -2061 17 -2077 -1z m2019 -757 l0 -700 -979 0 -979 0 -7 133 c-4 91 0
1202 5 1265 0 1 441 2 980 2 l980 0 0 -700z m200 -789 c0 -11 -7 -27 -16 -35
-14 -14 -133 -16 -1163 -16 -1079 0 -1149 1 -1167 18 -11 9 -18 25 -16 35 3
16 68 17 1183 17 1158 0 1179 0 1179 -19z"/>
<path d="M527 1662 c-15 -17 -17 -72 -17 -584 0 -535 1 -566 18 -581 17 -16
91 -17 865 -17 l846 0 15 22 c14 20 16 91 16 578 0 487 -2 558 -16 578 l-15
22 -848 0 c-809 0 -849 -1 -864 -18z m221 1 c-26 -2 -71 -2 -100 0 -29 2 -8 3
47 3 55 0 79 -1 53 -3z m580 0 c-15 -2 -42 -2 -60 0 -18 2 -6 4 27 4 33 0 48
-2 33 -4z m870 -493 l2 -430 -108 0 -109 0 -37 55 c-20 30 -36 57 -36 60 0 3
53 5 118 6 64 0 111 3 103 6 -11 5 -11 7 0 14 8 5 -39 9 -116 9 l-130 0 -22
33 c-83 125 -133 207 -133 219 0 7 14 41 32 76 l32 62 176 2 175 2 -165 6
c-91 3 -154 7 -140 9 l25 3 -23 6 c-29 9 -29 9 -3 60 l21 42 90 0 90 0 0 53
c0 37 -3 48 -10 37 -6 -9 -10 -10 -10 -3 0 8 -58 12 -220 12 l-220 0 0 -49 0
-49 80 -3 81 -3 -27 -52 c-19 -37 -31 -50 -42 -45 -10 3 -13 1 -8 -6 4 -7 1
-12 -9 -12 -9 0 -13 5 -10 10 3 6 -3 10 -13 10 -13 0 -31 17 -50 48 -17 26
-50 75 -74 109 l-43 63 -77 0 c-48 0 -78 -4 -78 -10 0 -6 -5 -16 -10 -23 -6
-7 -34 -50 -63 -97 -49 -80 -55 -85 -89 -88 -35 -3 -38 -1 -63 47 l-25 51 80
0 81 0 -2 50 -3 50 -214 0 c-237 0 -242 -1 -242 -64 l0 -36 90 0 c88 0 90 -1
103 -27 38 -75 41 -73 -85 -75 l-113 -2 115 -5 115 -6 -170 -5 -170 -6 178 0
178 1 36 -71 37 -71 -45 -73 c-24 -40 -59 -96 -77 -126 l-33 -54 -137 -2 c-75
-1 -114 -4 -87 -7 l50 -5 -50 -6 c-36 -5 -15 -7 73 -8 68 -1 122 -5 120 -10
-2 -4 -16 -31 -33 -60 l-30 -52 -112 0 -113 0 0 -50 0 -50 290 0 290 0 0 50 0
50 -100 0 c-55 0 -100 3 -100 8 0 4 16 31 35 60 l36 52 83 0 84 0 53 -107 c29
-60 58 -113 63 -119 6 -5 36 -11 67 -13 l55 -2 63 120 62 121 87 0 87 -1 32
-53 c18 -30 33 -57 33 -60 0 -3 -43 -6 -95 -6 l-95 0 0 -50 0 -50 285 0 285 0
0 -45 0 -45 -805 2 -805 3 0 523 c0 287 0 523 0 525 0 1 361 1 802 0 l803 -3
3 -430z m-738 148 c0 -4 -29 -8 -65 -8 -36 0 -65 3 -65 7 0 4 14 31 32 60 l32
53 33 -52 c18 -29 33 -56 33 -60z m-306 -53 c-5 -12 -10 -13 -20 -4 -19 15
-18 19 6 19 13 0 18 -5 14 -15z m516 6 c0 -18 -18 -21 -30 -6 -10 13 -9 15 9
15 11 0 21 -4 21 -9z m-400 -161 c0 -55 -4 -100 -8 -100 -9 0 -52 89 -52 108
0 14 47 92 55 92 3 0 5 -45 5 -100z m310 -23 c-6 -18 -19 -48 -30 -67 l-19
-35 0 115 -1 115 31 -48 c27 -43 29 -52 19 -80z m114 -132 c20 -30 36 -57 36
-60 0 -3 -30 -5 -66 -5 -36 0 -64 3 -62 8 11 24 53 112 54 112 1 0 18 -25 38
-55z m-521 -10 l27 -55 -66 0 -66 0 27 48 c16 26 30 50 32 55 9 16 20 5 46
-48z m0 -72 c-13 -2 -33 -2 -45 0 -13 2 -3 4 22 4 25 0 35 -2 23 -4z m540 0
c-13 -2 -35 -2 -50 0 -16 2 -5 4 22 4 28 0 40 -2 28 -4z m375 0 c-16 -2 -40
-2 -55 0 -16 2 -3 4 27 4 30 0 43 -2 28 -4z m-650 -78 c-18 -36 -35 -65 -38
-65 -3 0 -20 29 -38 65 l-32 65 70 0 70 0 -32 -65z"/>
<path d="M683 1303 c9 -2 23 -2 30 0 6 3 -1 5 -18 5 -16 0 -22 -2 -12 -5z"/>
<path d="M1897 1303 c18 -2 50 -2 70 0 21 2 7 4 -32 4 -38 0 -55 -2 -38 -4z"/>
<path d="M2058 1303 c12 -2 32 -2 45 0 12 2 2 4 -23 4 -25 0 -35 -2 -22 -4z"/>
<path d="M6214 1668 c-3 -4 -9 -6 -13 -3 -11 6 -123 -13 -130 -23 -3 -4 -21
-14 -38 -21 -18 -8 -33 -17 -33 -20 0 -4 -8 -16 -18 -27 -41 -44 -56 -162 -28
-228 20 -47 81 -102 134 -120 50 -17 76 -20 68 -8 -2 4 25 7 62 6 l67 -3 -60
8 c-152 20 -222 63 -245 151 -14 51 -6 132 16 170 34 56 118 89 227 90 118 0
197 -39 197 -98 0 -19 5 -29 15 -29 12 0 15 16 15 79 0 63 -3 78 -15 78 -8 0
-15 -9 -15 -20 0 -23 -4 -24 -31 -9 -30 15 -169 38 -175 27z"/>
<path d="M2790 1583 c0 -48 4 -73 9 -64 7 11 9 11 14 0 3 -8 6 14 6 49 l1 62
100 0 100 0 0 -195 0 -195 -50 0 c-38 0 -50 -4 -50 -15 0 -12 20 -15 120 -15
100 0 120 3 120 15 0 11 -12 15 -50 15 l-49 0 -3 195 -3 195 93 0 c55 0 92 4
92 10 0 6 4 10 10 10 5 0 11 -33 13 -72 l3 -73 2 78 2 77 -240 0 -240 0 0 -77z"/>
<path d="M3283 1585 c0 -44 2 -61 4 -37 2 23 2 59 0 80 -2 20 -4 1 -4 -43z"/>
<path d="M5288 1647 c7 -8 29 -14 50 -14 l37 1 3 -124 c1 -69 0 -158 -4 -197
l-6 -73 -42 0 c-31 0 -43 -4 -43 -15 0 -13 30 -15 207 -15 284 0 329 17 330
127 0 45 -4 54 -31 78 -38 31 -63 19 -30 -14 44 -44 34 -122 -18 -143 -14 -6
-95 -13 -178 -16 l-153 -4 -1 93 c0 52 0 140 0 197 l0 103 148 0 c144 1 149 0
176 -24 29 -26 38 -82 16 -104 -9 -9 -7 -11 5 -9 45 6 49 81 7 128 l-29 33
-228 3 c-196 3 -226 1 -216 -11z"/>
<path d="M3415 1640 c19 -8 19 -9 -2 -9 -15 -1 -23 -7 -23 -18 0 -9 3 -14 6
-10 3 3 17 2 30 -3 19 -8 22 -6 17 7 -4 11 -3 14 6 9 9 -6 9 -3 -1 13 -7 12
-22 21 -33 20 -20 0 -20 0 0 -9z"/>
<path d="M3660 1518 c-28 -10 -60 -37 -60 -50 0 -5 5 -6 10 -3 6 3 10 0 10 -7
0 -7 9 -2 20 12 18 23 25 25 109 25 117 0 121 -4 128 -124 4 -76 2 -92 -11
-97 -14 -5 -14 -8 -1 -21 8 -8 15 -21 15 -29 0 -10 14 -14 55 -14 46 0 55 3
54 18 0 10 -3 12 -6 5 -2 -7 -17 -13 -31 -12 l-27 1 25 8 c25 7 25 7 -5 11
l-30 4 -5 111 c-4 78 -9 116 -20 129 -24 29 -75 45 -137 43 l-58 -1 55 -7 55
-7 -57 -1 c-31 -1 -58 2 -60 7 -2 5 -14 5 -28 -1z"/>
<path d="M4155 1523 c-11 -3 -22 -8 -25 -12 -3 -3 -14 -11 -25 -17 -61 -33
-83 -134 -45 -204 11 -19 19 -29 20 -22 0 7 5 10 12 6 8 -5 9 -2 3 12 -5 10
-11 46 -13 79 -3 56 -1 63 28 95 29 33 35 35 104 38 58 3 83 0 120 -16 l46
-21 0 -84 c0 -63 -4 -88 -15 -97 -8 -7 -13 -16 -10 -20 3 -5 -4 -6 -15 -3 -11
3 -20 0 -20 -6 0 -6 -11 -11 -25 -11 -16 0 -25 -6 -25 -15 0 -22 25 -18 70 10
22 14 40 22 41 18 4 -34 -5 -91 -18 -105 -23 -26 -108 -50 -158 -46 -25 2 -45
0 -45 -4 0 -5 -7 -8 -15 -8 -8 0 -15 6 -15 14 0 14 -48 32 -58 21 -3 -3 1 -5
9 -5 11 0 11 -2 1 -9 -25 -16 50 -36 133 -35 57 0 90 5 113 17 81 44 93 80 91
263 l-1 139 36 -3 c28 -3 36 0 36 13 0 13 -10 16 -55 14 -38 -2 -55 -7 -55
-16 0 -10 -12 -8 -50 7 -48 19 -127 25 -175 13z m108 -10 c-13 -2 -35 -2 -50
0 -16 2 -5 4 22 4 28 0 40 -2 28 -4z"/>
<path d="M4723 1523 c15 -2 39 -2 55 0 15 2 2 4 -28 4 -30 0 -43 -2 -27 -4z"/>
<path d="M4810 1519 c0 -8 -21 -10 -77 -6 -90 6 -136 -12 -166 -64 -21 -38
-22 -120 -2 -159 18 -35 52 -60 72 -53 8 3 13 0 11 -8 -2 -7 5 -15 14 -17 28
-6 11 26 -23 44 -60 30 -78 123 -36 185 31 46 61 59 140 59 120 0 167 -35 167
-127 0 -65 -15 -99 -50 -115 -29 -13 -58 -48 -40 -48 14 0 71 29 86 44 24 25
44 77 44 116 0 62 -32 111 -89 137 -20 9 -39 18 -43 20 -5 2 -8 -1 -8 -8z"/>
<path d="M3333 1510 c5 -19 67 -27 67 -8 0 9 2 10 8 2 4 -7 6 -69 4 -138 l-3
-126 -30 0 c-16 0 -29 -5 -29 -12 0 -9 -4 -8 -10 2 -8 13 -10 12 -10 -2 0 -16
11 -18 95 -18 84 0 95 2 95 18 0 14 -2 15 -10 2 -6 -10 -10 -11 -10 -2 0 6
-11 12 -25 12 l-25 0 0 143 c0 95 -3 137 -10 127 -6 -10 -10 -11 -10 -2 0 7
-15 12 -40 12 -25 0 -40 -5 -40 -12 0 -9 -4 -8 -11 2 -9 13 -10 13 -6 0z"/>
<path d="M5625 1469 c-93 -11 -158 -12 -187 -4 -18 5 -20 4 -8 -4 13 -10 13
-11 0 -13 -8 -1 50 -4 130 -8 80 -4 154 -3 165 1 l20 8 -20 1 c-15 0 -17 2 -7
9 11 7 10 10 -3 15 -9 3 -17 5 -18 5 -1 -1 -33 -5 -72 -10z"/>
<path d="M6352 1423 c33 -2 58 -9 61 -16 3 -7 4 -42 3 -77 l-1 -65 -58 -15
c-32 -9 -61 -21 -65 -27 -4 -7 -32 -13 -62 -16 l-55 -3 63 -2 c34 -1 62 2 62
7 0 4 11 6 24 4 14 -3 38 1 53 9 30 15 57 13 47 -3 -3 -5 2 -9 10 -9 12 0 15
19 18 100 2 55 2 105 0 110 -2 6 -38 9 -80 8 -68 -2 -71 -2 -20 -5z"/>
<path d="M6510 1422 c0 -7 -10 -13 -22 -13 -19 -1 -20 -2 -4 -6 20 -5 44 12
33 24 -4 3 -7 1 -7 -5z"/>
<path d="M6333 1403 c15 -2 37 -2 50 0 12 2 0 4 -28 4 -27 0 -38 -2 -22 -4z"/>
<path d="M3740 1389 c0 -4 -10 -10 -22 -12 -20 -4 -19 -4 5 -6 15 0 27 2 27 7
0 4 24 6 52 5 63 -3 53 3 -14 10 -27 2 -48 1 -48 -4z"/>
<path d="M3640 1368 c-14 -13 -26 -22 -27 -20 -10 9 -34 -18 -39 -45 -5 -25 0
-37 23 -63 20 -23 35 -31 46 -27 24 9 21 22 -8 35 -35 16 -35 73 0 96 13 9 31
16 40 16 8 0 15 7 15 15 0 22 -23 18 -50 -7z"/>
<path d="M4100 1250 c-12 -7 -10 -9 8 -7 12 0 22 5 22 9 0 11 -12 10 -30 -2z"/>
<path d="M3774 1239 c-14 -5 -15 -8 -4 -8 13 -1 13 -2 0 -11 -26 -17 9 -11 54
9 l39 17 -35 0 c-20 0 -44 -3 -54 -7z"/>
<path d="M4140 1228 c0 -13 6 -18 17 -16 24 5 27 25 3 31 -15 4 -20 0 -20 -15z"/>
<path d="M3688 1223 c12 -2 30 -2 40 0 9 3 -1 5 -23 4 -22 0 -30 -2 -17 -4z"/>
<path d="M4208 1223 c12 -2 30 -2 40 0 9 3 -1 5 -23 4 -22 0 -30 -2 -17 -4z"/>
<path d="M3678 1203 c12 -2 32 -2 45 0 12 2 2 4 -23 4 -25 0 -35 -2 -22 -4z"/>
<path d="M4208 1203 c12 -2 30 -2 40 0 9 3 -1 5 -23 4 -22 0 -30 -2 -17 -4z"/>
<path d="M4723 1203 c15 -2 37 -2 50 0 12 2 0 4 -28 4 -27 0 -38 -2 -22 -4z"/>
<path d="M2790 826 c0 -12 11 -16 50 -16 l50 0 0 -195 0 -195 -42 -1 -43 -2
40 -7 40 -6 -40 -6 c-22 -2 51 -5 161 -6 215 -2 240 2 306 51 30 22 66 77 51
77 -5 0 -2 4 6 9 9 6 13 31 13 84 0 97 -25 148 -96 192 l-49 30 -224 3 c-198
3 -223 2 -223 -12z m68 -3 c-10 -2 -28 -2 -40 0 -13 2 -5 4 17 4 22 1 32 -1
23 -4z m374 -28 c66 -23 94 -58 111 -138 7 -37 11 -70 7 -72 -4 -3 -10 -22
-14 -44 -6 -41 -51 -105 -67 -95 -5 3 -9 1 -9 -4 0 -5 -6 -10 -12 -11 -28 -5
-320 -16 -324 -12 -2 2 -4 91 -4 198 l0 193 133 0 c94 0 147 -5 179 -15z
m-144 -392 c-21 -2 -55 -2 -75 0 -21 2 -4 4 37 4 41 0 58 -2 38 -4z"/>
<path d="M4779 831 c11 -7 11 -9 0 -14 -8 -3 3 -6 24 -6 l37 -1 0 -179 c0 -99
3 -186 6 -195 3 -9 15 -16 25 -16 10 0 18 -6 17 -12 -2 -8 10 -14 32 -15 27
-2 30 -1 15 6 -18 8 -17 9 10 13 25 4 23 5 -11 7 -28 0 -44 6 -48 17 -3 9 -6
103 -6 210 l0 194 -57 0 c-37 0 -53 -4 -44 -9z m48 -7 c-3 -3 -12 -4 -19 -1
-8 3 -5 6 6 6 11 1 17 -2 13 -5z"/>
<path d="M4498 703 c-17 -3 -28 -11 -28 -20 0 -9 -6 -13 -15 -9 -8 3 -15 1
-15 -5 0 -6 -5 -7 -10 -4 -6 4 -9 1 -8 -7 2 -7 -4 -12 -12 -11 -9 2 -23 -10
-33 -26 -27 -46 -16 -184 13 -166 5 3 12 0 16 -6 4 -8 3 -9 -4 -5 -7 4 -12 2
-12 -4 0 -7 6 -10 13 -7 6 2 21 0 32 -6 15 -7 13 -3 -7 20 -16 16 -28 36 -28
45 0 9 -6 18 -12 21 -8 3 -3 9 12 15 22 10 23 11 5 13 -11 2 48 6 130 9 l150
6 -148 2 -148 2 7 23 c4 12 8 30 8 39 0 9 3 16 6 16 3 -1 23 7 45 18 50 23
130 24 173 2 17 -9 32 -12 32 -7 0 6 5 7 10 4 6 -4 8 -10 5 -15 -3 -4 2 -23 9
-42 8 -19 11 -39 7 -46 -4 -7 -48 -12 -121 -15 l-115 -3 128 -2 c96 -1 127 1
127 11 0 8 4 7 11 -3 8 -11 9 -5 5 25 -6 47 -30 81 -77 113 -29 20 -41 22 -83
16 -34 -4 -47 -3 -42 5 4 6 6 10 4 10 -2 -1 -15 -4 -30 -6z"/>
<path d="M5208 703 c6 -2 18 -2 25 0 6 3 1 5 -13 5 -14 0 -19 -2 -12 -5z"/>
<path d="M5728 703 c6 -2 18 -2 25 0 6 3 1 5 -13 5 -14 0 -19 -2 -12 -5z"/>
<path d="M6210 698 c0 -6 -19 -7 -50 -3 -35 5 -50 3 -50 -5 0 -6 -4 -9 -9 -6
-14 9 -72 -44 -87 -81 -17 -40 -19 -114 -3 -110 6 1 14 -4 17 -12 3 -8 0 -11
-7 -7 -7 5 -8 1 -4 -10 4 -10 8 -13 10 -7 2 6 15 1 30 -13 14 -13 28 -22 31
-19 3 2 -5 13 -18 23 -13 10 -25 35 -30 60 l-7 42 66 2 66 2 -68 5 -67 6 17
35 c25 49 92 82 156 76 34 -4 46 -2 41 6 -5 8 -1 9 10 5 10 -4 21 -7 24 -7 4
0 0 -5 -8 -10 -13 -8 -13 -10 3 -11 32 -3 36 -4 49 -16 8 -9 9 -13 1 -13 -8 0
-7 -9 3 -27 7 -16 14 -31 14 -35 0 -5 -30 -9 -67 -10 l-68 -2 65 -5 65 -5 -70
-6 -70 -6 88 -2 c86 -2 87 -2 87 22 0 46 -24 87 -72 125 -23 18 -88 32 -88 19z"/>
<path d="M6668 703 c6 -2 18 -2 25 0 6 3 1 5 -13 5 -14 0 -19 -2 -12 -5z"/>
<path d="M3543 673 c-43 -27 -70 -71 -72 -115 -1 -33 10 -41 41 -29 21 9 21
10 3 12 -11 2 48 6 130 9 l150 6 -155 2 c-85 1 -150 6 -144 10 6 4 15 18 19
32 11 34 25 46 83 66 45 16 56 17 99 5 26 -7 57 -15 68 -16 11 -1 19 -7 18
-13 -2 -6 4 -26 12 -44 7 -19 10 -39 6 -46 -4 -7 -45 -12 -106 -15 l-100 -3
113 -2 c84 -1 112 1 112 11 0 8 4 7 11 -3 8 -11 9 -5 5 25 -6 44 -28 78 -69
109 -22 16 -45 21 -106 23 -70 1 -84 -1 -118 -24z"/>
<path d="M3925 690 c22 -4 32 -8 23 -9 -15 -1 -11 -16 29 -96 28 -56 54 -95
63 -96 9 0 11 -2 3 -5 -9 -4 -8 -14 4 -40 9 -19 21 -34 25 -34 5 0 6 -4 3 -10
-3 -6 4 -10 18 -10 21 0 33 19 94 137 54 106 75 139 94 144 23 7 22 7 -6 9
-27 3 -27 3 10 10 31 6 23 7 -40 7 -44 0 -66 -2 -50 -5 l30 -5 -25 -7 c-24 -8
-24 -8 -2 -9 12 -1 22 -3 22 -5 0 -2 -28 -59 -61 -127 l-61 -123 -50 99 c-27
55 -56 110 -64 123 -14 21 -13 23 8 32 l23 9 -25 2 c-21 1 -19 3 10 9 27 6 17
7 -40 7 -61 0 -68 -1 -35 -7z"/>
<path d="M5120 683 c0 -6 -9 -10 -19 -8 -12 2 -30 -8 -47 -28 -40 -45 -47
-139 -14 -192 14 -22 28 -34 36 -31 8 3 14 1 14 -5 0 -6 5 -7 10 -4 6 3 10 -1
10 -9 0 -9 8 -16 18 -16 9 0 13 4 7 8 -5 4 -27 26 -47 50 -32 36 -38 49 -38
88 0 68 23 109 73 128 87 33 193 14 237 -41 18 -23 21 -37 17 -83 -2 -30 -9
-69 -15 -87 -14 -41 6 -36 33 10 28 47 26 125 -5 170 -14 20 -36 41 -50 48
-34 16 -220 18 -220 2z"/>
<path d="M5505 691 c40 -6 40 -6 41 -51 2 -72 17 -230 21 -230 3 0 11 6 19 14
9 10 10 16 2 18 -14 5 -11 167 3 184 6 7 4 15 -5 23 -8 6 -12 21 -9 31 5 18 0
20 -53 18 -54 -1 -55 -2 -19 -7z m52 -63 c-3 -7 -5 -2 -5 12 0 14 2 19 5 13 2
-7 2 -19 0 -25z"/>
<path d="M5663 688 c11 -7 -3 -12 -25 -10 -3 1 -9 -5 -12 -13 -5 -13 0 -13 32
1 24 10 59 14 102 12 60 -3 67 -6 92 -37 48 -58 49 -136 2 -186 -13 -14 -24
-30 -24 -35 0 -5 -7 -7 -15 -3 -9 3 -21 -2 -28 -10 -8 -10 -32 -17 -67 -20
l-55 -3 61 -2 c73 -2 137 26 172 78 47 70 20 184 -53 220 -30 14 -204 22 -182
8z"/>
<path d="M6480 690 c30 -4 47 -7 36 -8 -13 -2 -16 -6 -9 -14 10 -13 14 -55 17
-178 1 -64 1 -65 -29 -71 -16 -4 -22 -7 -12 -8 11 -1 15 -6 11 -13 -5 -8 -2
-9 12 -4 10 5 42 12 69 16 l50 8 -42 1 -43 1 0 86 c0 71 4 90 20 111 11 14 20
31 20 37 0 6 -7 3 -14 -6 -16 -22 -26 -13 -26 24 0 28 -1 28 -57 26 l-58 -1
55 -7z"/>
<path d="M6663 683 c9 -2 23 -2 30 0 6 3 -1 5 -18 5 -16 0 -22 -2 -12 -5z"/>
<path d="M3898 673 c7 -3 16 -2 19 1 4 3 -2 6 -13 5 -11 0 -14 -3 -6 -6z"/>
<path d="M5498 673 c6 -2 18 -2 25 0 6 3 1 5 -13 5 -14 0 -19 -2 -12 -5z"/>
<path d="M6458 673 c6 -2 18 -2 25 0 6 3 1 5 -13 5 -14 0 -19 -2 -12 -5z"/>
<path d="M6077 533 c18 -2 50 -2 70 0 21 2 7 4 -32 4 -38 0 -55 -2 -38 -4z"/>
<path d="M3475 500 c-7 -12 19 -58 44 -77 9 -7 24 -10 33 -7 13 4 16 1 12 -10
-4 -11 0 -16 12 -16 16 0 17 2 4 10 -12 8 -12 10 5 10 14 0 10 5 -15 18 -20 9
-41 31 -50 49 -15 33 -33 42 -45 23z m39 -46 c3 -8 2 -12 -4 -9 -6 3 -10 10
-10 16 0 14 7 11 14 -7z"/>
<path d="M6343 458 c-4 -7 -14 -13 -22 -13 -8 0 -15 -8 -17 -17 -1 -10 1 -18
5 -18 8 0 33 26 45 48 4 6 5 12 2 12 -3 0 -9 -6 -13 -12z"/>
<path d="M4665 422 l-19 -27 24 16 c24 16 38 39 23 39 -4 0 -17 -13 -28 -28z"/>
<path d="M3735 420 l-20 -9 20 0 c17 -1 17 -3 5 -11 -13 -8 -13 -10 2 -10 11
0 16 7 15 20 -1 11 -1 20 -2 19 0 0 -9 -4 -20 -9z"/>
<path d="M6265 420 l-20 -9 20 0 c17 -1 17 -3 5 -11 -13 -8 -13 -10 2 -10 11
0 16 7 15 20 -1 11 -1 20 -2 19 0 0 -9 -4 -20 -9z"/>
<path d="M4469 411 c11 -7 11 -10 -3 -14 -15 -5 -15 -5 0 -3 24 2 30 26 7 26
-14 0 -15 -2 -4 -9z"/>
<path d="M5299 412 c11 -8 11 -10 0 -15 -10 -4 -8 -6 4 -6 21 -1 18 21 -4 27
-12 3 -12 2 0 -6z"/>
<path d="M3660 401 l55 -5 -60 -6 -60 -7 63 -1 c47 -2 63 1 60 11 -3 7 -25 12
-59 13 l-54 1 55 -6z"/>
<path d="M4523 403 c15 -2 39 -2 55 0 15 2 2 4 -28 4 -30 0 -43 -2 -27 -4z"/>
<path d="M5178 403 c7 -3 16 -2 19 1 4 3 -2 6 -13 5 -11 0 -14 -3 -6 -6z"/>
<path d="M5233 403 c9 -2 23 -2 30 0 6 3 -1 5 -18 5 -16 0 -22 -2 -12 -5z"/>
<path d="M5688 403 c6 -2 18 -2 25 0 6 3 1 5 -13 5 -14 0 -19 -2 -12 -5z"/>
<path d="M5743 403 c9 -2 23 -2 30 0 6 3 -1 5 -18 5 -16 0 -22 -2 -12 -5z"/>
<path d="M6163 403 c15 -2 37 -2 50 0 12 2 0 4 -28 4 -27 0 -38 -2 -22 -4z"/>
<path d="M4618 393 c7 -3 16 -2 19 1 4 3 -2 6 -13 5 -11 0 -14 -3 -6 -6z"/>
<path d="M5573 350 c0 -30 2 -43 4 -27 2 15 2 39 0 55 -2 15 -4 2 -4 -28z"/>
<path d="M6185 390 l-60 -7 63 -1 c36 -1 62 2 62 8 0 6 -1 9 -2 8 -2 -1 -30
-4 -63 -8z"/>
<path d="M6568 393 c6 -2 18 -2 25 0 6 3 1 5 -13 5 -14 0 -19 -2 -12 -5z"/>
<path d="M4518 383 c18 -2 45 -2 60 0 15 2 0 4 -33 4 -33 0 -45 -2 -27 -4z"/>
<path d="M5198 383 c18 -2 45 -2 60 0 15 2 0 4 -33 4 -33 0 -45 -2 -27 -4z"/>
<path d="M5603 263 c9 -2 23 -2 30 0 6 3 -1 5 -18 5 -16 0 -22 -2 -12 -5z"/>
</g>
</svg>
